<svg width="22" height="17" viewBox="0 0 22 17" fill="none" xmlns="http://www.w3.org/2000/svg">
<circle cx="3.40426" cy="3.40426" r="3.40426" transform="matrix(-1 0 0 1 14.6172 1)" stroke="#2D2A4B" stroke-width="1.5"/>
<path d="M5.25586 12.8604C5.25586 12.1282 5.71616 11.475 6.40572 11.2287V11.2287C9.51462 10.1184 12.912 10.1184 16.0209 11.2287V11.2287C16.7105 11.475 17.1708 12.1282 17.1708 12.8604V13.98C17.1708 14.9905 16.2757 15.7668 15.2753 15.6239L14.9417 15.5763C12.4687 15.223 9.95795 15.223 7.48491 15.5763L7.15136 15.6239C6.15093 15.7668 5.25586 14.9905 5.25586 13.98V12.8604Z" stroke="#2D2A4B" stroke-width="1.5"/>
<path d="M16.3174 7.90423C17.7947 7.90423 18.9922 6.7067 18.9922 5.22946C18.9922 3.75222 17.7947 2.55469 16.3174 2.55469" stroke="#2D2A4B" stroke-width="1.5" stroke-linecap="round"/>
<path d="M19.2471 14.0075L19.5092 14.0449C20.2952 14.1572 20.9985 13.5473 20.9985 12.7533V11.8736C20.9985 11.2983 20.6368 10.7851 20.095 10.5916C19.5546 10.3985 19.003 10.2482 18.4453 10.1406" stroke="#2D2A4B" stroke-width="1.5" stroke-linecap="round"/>
<path d="M5.68649 7.90423C4.20926 7.90423 3.01172 6.7067 3.01172 5.22946C3.01172 3.75222 4.20926 2.55469 5.68649 2.55469" stroke="#2D2A4B" stroke-width="1.5" stroke-linecap="round"/>
<path d="M2.7568 14.0075L2.49472 14.0449C1.70867 14.1572 1.0054 13.5473 1.0054 12.7533V11.8736C1.0054 11.2983 1.36707 10.7851 1.90887 10.5916C2.44932 10.3985 3.00086 10.2482 3.55859 10.1406" stroke="#2D2A4B" stroke-width="1.5" stroke-linecap="round"/>
</svg>
